<svg width="635" height="155" viewBox="0 0 635 155" fill="none" xmlns="http://www.w3.org/2000/svg">
<path d="M31.5 126V37.35H0.75V21H82.35V37.35H51.6V126H31.5ZM77.5254 126V51.6H94.7754L96.5754 67.95H97.1754C99.3754 62.65 101.775 58.75 104.375 56.25C106.975 53.65 109.925 51.95 113.225 51.15C116.625 50.25 120.425 49.8 124.625 49.8V71.25H119.075C115.675 71.25 112.625 71.65 109.925 72.45C107.325 73.15 105.125 74.35 103.325 76.05C101.525 77.65 100.125 79.8 99.1254 82.5C98.2254 85.2 97.7754 88.45 97.7754 92.25V126H77.5254ZM155.132 127.8C149.032 127.8 143.832 126.5 139.532 123.9C135.232 121.3 131.932 117.45 129.632 112.35C127.332 107.15 126.182 100.8 126.182 93.3V51.6H146.282V91.5C146.282 97.7 147.532 102.45 150.032 105.75C152.632 109.05 156.632 110.7 162.032 110.7C165.532 110.7 168.582 109.9 171.182 108.3C173.882 106.6 175.982 104.2 177.482 101.1C178.982 98 179.732 94.3 179.732 90V51.6H199.982V126H182.732L180.932 114.15H180.332C178.032 118.35 174.782 121.7 170.582 124.2C166.482 126.6 161.332 127.8 155.132 127.8ZM238.739 127.8C232.139 127.8 226.289 126.7 221.189 124.5C216.189 122.3 212.139 119.3 209.039 115.5C206.039 111.6 204.289 107.2 203.789 102.3H224.039C224.439 104.1 225.239 105.8 226.439 107.4C227.639 109 229.239 110.3 231.239 111.3C233.339 112.2 235.739 112.65 238.439 112.65C241.239 112.65 243.489 112.3 245.189 111.6C246.889 110.8 248.139 109.8 248.939 108.6C249.839 107.4 250.289 106.1 250.289 104.7C250.289 102.8 249.639 101.35 248.339 100.35C247.139 99.25 245.339 98.3 242.939 97.5C240.639 96.7 237.889 95.85 234.689 94.95C231.389 94.05 228.039 93.1 224.639 92.1C221.339 91.1 218.289 89.85 215.489 88.35C212.689 86.75 210.439 84.75 208.739 82.35C207.139 79.85 206.339 76.75 206.339 73.05C206.339 68.75 207.539 64.85 209.939 61.35C212.339 57.85 215.789 55.05 220.289 52.95C224.889 50.85 230.339 49.8 236.639 49.8C245.639 49.8 252.789 51.85 258.089 55.95C263.489 60.05 266.639 65.7 267.539 72.9H248.489C247.989 70.4 246.689 68.45 244.589 67.05C242.589 65.65 239.939 64.95 236.639 64.95C233.139 64.95 230.439 65.65 228.539 67.05C226.739 68.35 225.839 69.95 225.839 71.85C225.839 73.25 226.439 74.45 227.639 75.45C228.839 76.35 230.589 77.2 232.889 78C235.289 78.7 238.139 79.5 241.439 80.4C246.739 81.8 251.589 83.3 255.989 84.9C260.389 86.5 263.889 88.7 266.489 91.5C269.089 94.2 270.389 98.05 270.389 103.05C270.489 107.85 269.239 112.1 266.639 115.8C264.039 119.5 260.389 122.45 255.689 124.65C250.989 126.75 245.339 127.8 238.739 127.8ZM306.373 126C301.073 126 296.423 125.2 292.423 123.6C288.523 121.9 285.473 119.15 283.273 115.35C281.073 111.45 279.973 106.15 279.973 99.45V67.8H267.223V51.6H279.973L282.223 31.35H300.223V51.6H320.023V67.8H300.223V99.75C300.223 103.35 300.973 105.85 302.473 107.25C303.973 108.55 306.523 109.2 310.123 109.2H319.573V126H306.373Z" fill="#E4FFEE"/>
<path d="M339.75 126V21H408.15V37.35H360V65.4H398.7V81.3H360V126H339.75ZM412.594 126V21H432.844V126H412.594ZM477.035 127.8C469.835 127.8 463.335 126.15 457.535 122.85C451.735 119.55 447.135 114.95 443.735 109.05C440.435 103.15 438.785 96.4 438.785 88.8C438.785 81.1 440.485 74.35 443.885 68.55C447.285 62.65 451.885 58.05 457.685 54.75C463.485 51.45 469.935 49.8 477.035 49.8C484.235 49.8 490.735 51.45 496.535 54.75C502.335 58.05 506.885 62.65 510.185 68.55C513.585 74.35 515.285 81.1 515.285 88.8C515.285 96.5 513.585 103.3 510.185 109.2C506.785 115 502.185 119.55 496.385 122.85C490.685 126.15 484.235 127.8 477.035 127.8ZM476.885 110.7C480.185 110.7 483.135 109.9 485.735 108.3C488.435 106.7 490.585 104.3 492.185 101.1C493.785 97.8 494.585 93.7 494.585 88.8C494.585 83.9 493.785 79.85 492.185 76.65C490.585 73.35 488.435 70.9 485.735 69.3C483.135 67.7 480.285 66.9 477.185 66.9C473.985 66.9 471.035 67.7 468.335 69.3C465.635 70.9 463.485 73.35 461.885 76.65C460.285 79.85 459.485 83.9 459.485 88.8C459.485 93.7 460.285 97.8 461.885 101.1C463.485 104.3 465.585 106.7 468.185 108.3C470.885 109.9 473.785 110.7 476.885 110.7ZM532.08 126L512.73 51.6H532.68L545.13 111.75H545.73L559.53 51.6H582.63L596.58 111.6H597.18L609.48 51.6H629.58L609.93 126H585.78L571.38 66.45H570.78L556.23 126H532.08Z" fill="#60D9DD"/>
</svg>
